
<svg width="151px" height="48px" viewBox="0 0 151 48" version="1.1" xmlns="http://www.w3.org/2000/svg" xmlns:xlink="http://www.w3.org/1999/xlink">
    <!-- Generator: Sketch 47.1 (45422) - http://www.bohemiancoding.com/sketch -->
    <desc>Created with Sketch.</desc>
    <defs></defs>
    <g id="Page-1" stroke="none" stroke-width="1" fill="none" fill-rule="evenodd">
        <g id="bmvi" fill-rule="nonzero">
            <polygon id="Shape" fill="#FFFFFF" points="0 0 150.767612 0 150.767612 47.8670633 0 47.8670633"></polygon>
            <polyline id="Shape" fill="#FFCB00" points="39.209 30 40.879 30 40.879 42.695 37 42.695 37 30"></polyline>
            <polyline id="Shape" fill="#FF0000" points="39.209 17 40.879 17 40.879 29.695 37 29.695 37 17"></polyline>
            <path d="M19.428,14.171 C19.443,13.918 19.443,13.664 19.428,13.411 L19.428,12.911 C21.638,12.911 23.567,11.291 23.567,9.461 C23.502,8.688 23.165,7.961 22.617,7.412 L22.847,7.362 C23.595,8.004 24.056,8.918 24.126,9.902 C24.126,12.091 21.937,14.131 19.438,14.171 L19.428,14.171 Z M17.208,6.542 C17.169,6.303 17.073,6.077 16.929,5.883 C16.929,5.663 17.029,5.443 17.389,5.623 C17.189,5.823 17.389,6.173 17.389,6.173 C17.389,6.173 17.788,5.992 17.708,5.723 C18.299,5.863 17.878,6.653 17.259,6.533 L17.208,6.542 Z M16.748,7.662 C16.666,7.326 16.509,7.011 16.288,6.743 C16.06,6.445 15.713,6.263 15.338,6.243 C15.083,6.261 14.833,6.323 14.598,6.423 C14.484,6.222 14.407,6.002 14.368,5.774 C14.368,5.614 14.639,5.454 15.158,5.454 C16.299,5.454 16.978,5.974 16.978,6.833 C16.961,7.122 16.883,7.405 16.748,7.662 L16.748,7.662 Z M19.628,22.379 C19.721,22.378 19.813,22.395 19.899,22.429 C20.359,23.366 20.912,24.253 21.549,25.079 C22.133,24.979 22.724,24.923 23.318,24.909 C23.392,24.898 23.467,24.916 23.528,24.959 C23.577,25.026 23.598,25.108 23.588,25.19 C23.584,25.389 23.532,25.584 23.439,25.76 C23.106,25.471 22.667,25.336 22.229,25.389 C22.056,25.396 21.886,25.423 21.719,25.47 L21.619,25.47 L21.969,25.82 C22.51,26.36 22.969,26.82 22.969,27.13 C22.935,27.352 22.808,27.548 22.618,27.67 C22.45,26.997 22.055,26.403 21.498,25.99 L21.498,26.74 C21.498,27.82 21.389,27.98 21.019,27.98 C20.952,27.989 20.885,27.989 20.819,27.98 C21.053,27.626 21.156,27.201 21.109,26.78 L21.109,26.28 C21.096,26.086 21.096,25.893 21.109,25.7 L21.109,25.62 L21.05,25.62 C20.801,25.58 20.551,25.557 20.3,25.55 C19.892,25.496 19.48,25.605 19.15,25.85 C18.973,25.721 18.849,25.533 18.8,25.32 C18.8,25.099 18.94,25.08 19.119,25.08 L19.419,25.08 C19.843,25.141 20.272,25.168 20.699,25.16 C20.33,24.349 19.837,23.6 19.239,22.94 C19.309,22.68 19.379,22.51 19.629,22.51 L19.628,22.379 Z M12.829,24.989 C13.254,25.024 13.683,25.024 14.109,24.989 L14.409,24.989 C14.588,24.989 14.729,24.989 14.729,25.229 C14.679,25.441 14.555,25.63 14.378,25.759 C14.049,25.513 13.636,25.405 13.229,25.458 C12.978,25.465 12.727,25.489 12.479,25.528 L12.418,25.528 L12.418,25.609 C12.433,25.802 12.433,25.995 12.418,26.189 L12.418,26.689 C12.37,27.11 12.472,27.536 12.708,27.889 C12.641,27.899 12.574,27.899 12.508,27.889 C12.138,27.889 12.028,27.729 12.028,26.649 L12.028,25.9 C11.414,26.325 10.985,26.969 10.827,27.699 C10.639,27.578 10.511,27.382 10.478,27.159 C10.478,26.849 10.937,26.389 11.478,25.849 L11.828,25.549 L11.728,25.549 C11.562,25.503 11.39,25.476 11.218,25.469 C10.78,25.416 10.341,25.55 10.008,25.839 C9.892,25.646 9.829,25.425 9.827,25.199 C9.833,25.119 9.869,25.044 9.928,24.989 C9.989,24.946 10.064,24.928 10.138,24.939 C10.731,24.953 11.323,25.009 11.908,25.109 C12.545,24.283 13.098,23.396 13.558,22.459 C13.643,22.424 13.736,22.407 13.828,22.409 C14.078,22.409 14.148,22.579 14.218,22.839 C13.651,23.483 13.184,24.208 12.829,24.989 L12.829,24.989 Z M9.379,9.902 C9.441,8.924 9.886,8.011 10.619,7.362 L10.828,7.412 C10.281,7.962 9.945,8.688 9.878,9.461 C9.878,11.301 11.878,12.911 14.078,12.911 L14.078,13.411 C14.064,13.664 14.064,13.918 14.078,14.171 C11.558,14.171 9.328,12.111 9.328,9.902 L9.379,9.902 Z M26.307,13.781 C26.904,15.057 28.279,15.777 29.666,15.54 C28.797,14.845 28.056,14.002 27.477,13.051 L25.407,9.741 C25.204,8.704 24.671,7.761 23.888,7.052 C24.107,6.976 24.315,6.872 24.508,6.742 C23.157,6.742 21.818,6.052 21.078,6.052 C20.7,6.002 20.353,6.267 20.304,6.645 C20.302,6.667 20.299,6.689 20.299,6.711 C20.299,7.131 20.759,7.552 21.549,7.552 C21.77,7.545 21.99,7.522 22.208,7.482 C22.676,8.013 22.95,8.686 22.988,9.392 C22.997,10.851 21.259,11.991 19.509,11.991 L19.218,11.991 C18.864,11.502 18.628,10.937 18.528,10.342 C18.528,9.192 19.278,8.252 19.278,7.113 C19.286,6.625 19.127,6.149 18.828,5.763 C19.034,5.595 19.204,5.388 19.328,5.153 C19.168,5.207 18.997,5.227 18.828,5.213 C17.988,5.213 17.299,4.993 16.639,4.993 C16.259,4.993 16.158,5.113 16.158,5.223 C16.152,5.256 16.152,5.29 16.158,5.323 C16.02,5.269 15.875,5.229 15.729,5.203 C15.521,5.163 15.31,5.143 15.099,5.143 C14.289,5.143 13.999,5.483 13.999,5.773 C14.061,6.132 14.201,6.473 14.409,6.773 C14.68,6.63 14.975,6.539 15.279,6.503 C15.708,6.503 16.088,6.913 16.279,7.393 C16.067,7.41 15.853,7.41 15.64,7.393 C15.147,7.373 14.662,7.278 14.2,7.113 C14.2,7.113 14.42,7.513 14.87,7.673 C15.392,7.831 15.927,7.937 16.47,7.993 C16.411,8.142 16.301,8.266 16.159,8.343 C16.127,8.353 16.092,8.353 16.059,8.343 C15.528,8.284 15.005,8.167 14.499,7.993 C14.499,8.293 15.289,8.993 15.989,9.222 C15.232,10.017 14.651,10.96 14.28,11.992 L13.99,11.992 C12.24,11.992 10.511,10.852 10.511,9.403 C10.546,8.698 10.818,8.025 11.281,7.493 C11.499,7.534 11.719,7.557 11.941,7.563 C12.731,7.563 13.161,7.133 13.191,6.724 C13.177,6.343 12.858,6.045 12.478,6.058 C12.456,6.059 12.434,6.06 12.412,6.063 C11.672,6.063 10.342,6.753 8.983,6.753 C9.175,6.883 9.383,6.987 9.603,7.063 C8.826,7.771 8.297,8.71 8.093,9.742 L6.024,13.052 C5.445,14.006 4.704,14.852 3.834,15.551 C5.225,15.786 6.6,15.061 7.194,13.781 L8.254,12.092 C8.334,12.316 8.432,12.533 8.544,12.741 L6.435,16.111 C5.856,17.063 5.115,17.905 4.245,18.601 C5.634,18.837 7.009,18.117 7.605,16.841 L9.415,13.931 C9.555,14.081 9.695,14.221 9.844,14.351 L7.285,18.45 C6.712,19.421 5.971,20.281 5.095,20.99 C6.493,21.22 7.872,20.481 8.455,19.191 L10.955,15.191 L11.465,15.49 L8.4,20.37 C7.822,21.322 7.081,22.165 6.21,22.86 C7.599,23.096 8.974,22.376 9.57,21.1 L12.709,16.101 L13.279,16.301 L9.73,21.99 C9.149,22.941 8.408,23.783 7.54,24.48 C8.929,24.716 10.303,23.996 10.9,22.72 L14.68,16.671 L14.789,16.671 C14.893,16.974 14.95,17.291 14.959,17.611 C14.959,19.511 13.709,21.191 12.209,22.49 C12.345,22.535 12.487,22.555 12.628,22.55 C12.845,22.568 13.063,22.568 13.278,22.55 C12.862,23.347 12.377,24.107 11.828,24.82 C11.276,24.724 10.719,24.671 10.158,24.66 C9.668,24.66 9.618,24.95 9.618,25.2 C9.612,25.584 9.777,25.95 10.068,26.2 C10.157,25.97 10.337,25.67 11.247,25.67 L11.337,25.67 C11.077,25.959 10.247,26.67 10.247,27.17 C10.298,27.643 10.674,28.015 11.147,28.06 C11.133,27.961 11.133,27.86 11.147,27.76 C11.227,27.264 11.465,26.808 11.827,26.46 C11.822,26.533 11.822,26.607 11.827,26.681 C11.827,27.681 11.917,28.181 12.577,28.181 C12.795,28.186 13.011,28.119 13.187,27.991 C12.827,27.67 12.657,27.187 12.737,26.711 L12.737,26.211 C12.748,26.068 12.748,25.924 12.737,25.782 C12.907,25.767 13.078,25.767 13.247,25.782 C13.247,25.782 14.178,25.711 14.397,26.192 C14.647,25.962 15.017,25.632 15.017,25.273 C15.017,24.912 14.907,24.763 14.427,24.763 C14.246,24.763 13.677,24.873 13.197,24.873 C13.543,24.266 13.941,23.691 14.387,23.154 C14.461,23.427 14.618,23.672 14.836,23.853 C14.92,23.011 15.22,22.206 15.706,21.514 C15.823,22.174 15.879,22.843 15.876,23.514 C15.876,26.074 15.256,27.963 13.956,28.324 C14.144,28.65 14.481,28.86 14.856,28.884 C15.335,28.884 15.596,28.344 15.856,27.884 C15.995,28.264 16.375,29.184 16.756,29.184 C17.136,29.184 17.516,28.264 17.655,27.884 C17.926,28.394 18.175,28.884 18.655,28.884 C19.03,28.86 19.367,28.65 19.555,28.324 C18.244,27.964 17.636,26.074 17.636,23.514 C17.633,22.844 17.691,22.175 17.806,21.514 C18.293,22.205 18.593,23.012 18.676,23.853 C18.895,23.672 19.052,23.428 19.125,23.154 C19.571,23.691 19.97,24.266 20.315,24.873 C19.835,24.873 19.315,24.763 19.085,24.763 C18.606,24.763 18.496,25.033 18.496,25.273 C18.496,25.513 18.866,25.962 19.116,26.192 C19.336,25.712 20.266,25.782 20.266,25.782 C20.436,25.767 20.606,25.767 20.776,25.782 C20.765,25.925 20.765,26.069 20.776,26.211 L20.776,26.711 C20.852,27.189 20.678,27.671 20.316,27.991 C20.491,28.135 20.71,28.217 20.936,28.221 C21.585,28.221 21.686,27.751 21.686,26.721 C21.69,26.648 21.69,26.575 21.686,26.501 C22.058,26.845 22.308,27.301 22.396,27.801 C22.41,27.9 22.41,28.002 22.396,28.101 C22.873,28.06 23.255,27.687 23.306,27.211 C23.306,26.671 22.476,26.002 22.216,25.711 L22.306,25.711 C23.205,25.711 23.396,26.011 23.486,26.241 C23.777,25.991 23.942,25.625 23.936,25.241 C23.936,24.981 23.886,24.701 23.396,24.701 C22.836,24.712 22.278,24.765 21.726,24.861 C21.168,24.129 20.677,23.35 20.257,22.531 C20.473,22.549 20.691,22.549 20.906,22.531 C21.049,22.537 21.191,22.516 21.326,22.471 C19.826,21.171 18.576,19.471 18.576,17.592 C18.585,17.272 18.642,16.955 18.745,16.652 L18.855,16.652 L22.635,22.701 C23.231,23.976 24.606,24.697 25.994,24.46 C25.112,23.774 24.357,22.938 23.765,21.991 L20.216,16.311 L20.785,16.111 L23.925,21.111 C24.521,22.386 25.897,23.107 27.284,22.871 C26.414,22.176 25.673,21.333 25.095,20.381 L22.045,15.491 L22.555,15.192 L25.055,19.192 C25.634,20.481 27.009,21.22 28.404,20.991 C27.534,20.296 26.793,19.453 26.215,18.501 L23.655,14.402 C23.805,14.262 23.954,14.122 24.085,13.983 L25.905,16.892 C26.502,18.168 27.877,18.888 29.265,18.652 C28.394,17.956 27.654,17.113 27.075,16.162 L24.955,12.733 C25.068,12.524 25.165,12.306 25.245,12.083 L26.307,13.781 L26.307,13.781 Z M41.532,5.993 L41.532,17.0295 L36.834,17.0295 L36.834,5.993 L41.532,5.993 Z M52.273,12.371 C52.306,11.9 52.171,11.433 51.893,11.051 C51.556,10.732 51.096,10.574 50.633,10.621 L49.504,10.621 L49.504,14.05 L50.504,14.05 C50.965,14.086 51.426,13.977 51.823,13.74 C52.175,13.38 52.344,12.88 52.283,12.381 L52.273,12.371 Z M52.143,8.192 C52.195,7.749 52.041,7.306 51.723,6.992 C51.374,6.762 50.959,6.657 50.544,6.693 L49.504,6.693 L49.504,9.802 L50.613,9.802 C51.634,9.802 52.14,9.265 52.134,8.192 L52.143,8.192 Z M53.363,12.431 C53.454,13.168 53.199,13.906 52.674,14.431 C52.087,14.831 51.381,15.018 50.674,14.961 L48.454,14.961 L48.454,5.962 L50.824,5.962 C51.461,5.907 52.096,6.092 52.604,6.482 C53.03,6.957 53.236,7.587 53.174,8.222 C53.2,8.674 53.1,9.124 52.884,9.522 C52.62,9.86 52.244,10.091 51.823,10.172 C52.335,10.256 52.786,10.554 53.063,10.992 C53.29,11.444 53.393,11.947 53.363,12.451 L53.363,12.431 Z M59.293,14.901 L58.293,14.901 L58.293,14.101 C57.967,14.67 57.358,15.015 56.703,15.001 C55.577,15.001 55.014,14.355 55.014,13.062 L55.014,8.602 L56.014,8.602 L56.014,12.602 C55.996,12.974 56.04,13.345 56.144,13.702 C56.279,14.062 56.641,14.285 57.023,14.242 C57.85,14.242 58.263,13.629 58.263,12.403 L58.263,8.603 L59.263,8.603 L59.263,13.513 C59.263,14.006 59.28,14.469 59.313,14.903 L59.293,14.901 Z M65.331,14.901 L64.331,14.901 L64.331,10.901 C64.352,10.527 64.315,10.153 64.222,9.791 C64.092,9.434 63.739,9.209 63.362,9.241 C62.936,9.235 62.546,9.477 62.362,9.861 C62.161,10.257 62.061,10.697 62.071,11.141 L62.071,14.901 L61.071,14.901 L61.071,9.991 C61.071,9.431 61.054,8.971 61.021,8.612 L62.021,8.612 L62.021,9.472 C62.316,8.838 62.962,8.443 63.661,8.472 C64.768,8.472 65.321,9.138 65.321,10.472 L65.331,14.901 L65.331,14.901 Z M70.33,11.811 C70.356,11.199 70.291,10.585 70.141,9.991 C70.141,9.439 69.693,8.991 69.141,8.991 C68.588,8.991 68.141,9.439 68.141,9.991 C68.004,10.536 67.947,11.099 67.971,11.661 C67.945,12.271 68.012,12.882 68.172,13.471 C68.271,13.914 68.657,14.235 69.111,14.251 C69.613,14.293 70.067,13.954 70.171,13.461 C70.311,12.913 70.367,12.347 70.341,11.781 L70.33,11.811 Z M71.341,14.871 L70.341,14.871 L70.341,14.181 C70.035,14.706 69.468,15.024 68.861,15.011 C68.127,15.058 67.45,14.615 67.201,13.921 C66.974,13.194 66.876,12.433 66.911,11.671 C66.874,10.928 66.99,10.187 67.251,9.491 C67.509,8.849 68.15,8.446 68.841,8.491 C69.417,8.458 69.965,8.742 70.27,9.231 L70.27,5.861 L71.27,5.861 L71.27,13.71 C71.27,13.937 71.287,14.333 71.32,14.9 L71.341,14.871 Z M76.219,11.211 C76.24,10.778 76.2,10.343 76.099,9.922 C76.008,9.452 75.575,9.127 75.099,9.172 C74.432,9.172 74.046,9.581 73.939,10.402 C73.906,10.671 73.89,10.941 73.889,11.211 L76.219,11.211 Z M77.219,11.881 L73.92,11.881 L73.92,12.31 C73.895,12.78 73.951,13.25 74.09,13.7 C74.257,14.098 74.659,14.344 75.09,14.31 C75.817,14.31 76.196,13.847 76.23,12.92 L77.23,12.92 C77.328,13.97 76.557,14.901 75.507,14.999 C75.361,15.013 75.215,15.01 75.07,14.99 C74.348,15.068 73.646,14.721 73.271,14.1 C72.987,13.435 72.86,12.713 72.9,11.99 C72.855,11.178 72.96,10.365 73.211,9.591 C73.536,8.829 74.318,8.367 75.141,8.451 C75.893,8.365 76.617,8.767 76.94,9.451 C77.166,10.141 77.26,10.866 77.22,11.591 L77.22,11.881 L77.219,11.881 Z M82.279,13.181 C82.279,14.407 81.613,15.021 80.279,15.021 C78.946,15.021 78.313,14.354 78.38,13.021 L79.38,13.021 L79.38,13.371 C79.44,14.038 79.746,14.371 80.3,14.371 C80.759,14.463 81.208,14.164 81.3,13.704 C81.321,13.595 81.321,13.481 81.3,13.371 C81.316,13.068 81.207,12.772 81,12.551 C80.744,12.326 80.457,12.137 80.149,11.99 C79.753,11.797 79.377,11.563 79.029,11.29 C78.708,10.992 78.532,10.568 78.55,10.131 C78.521,9.654 78.722,9.194 79.09,8.891 C79.477,8.607 79.95,8.466 80.429,8.491 C80.932,8.432 81.437,8.589 81.819,8.921 C82.129,9.323 82.285,9.823 82.259,10.33 L81.259,10.33 C81.259,9.551 80.962,9.157 80.368,9.151 C80.141,9.14 79.918,9.227 79.759,9.391 C79.604,9.559 79.521,9.782 79.529,10.011 C79.528,10.298 79.661,10.568 79.89,10.741 C80.179,10.958 80.49,11.142 80.819,11.291 C81.18,11.481 81.516,11.717 81.819,11.991 C82.122,12.313 82.283,12.741 82.269,13.181 L82.279,13.181 Z M90.708,14.901 L89.708,14.901 L89.708,10.661 C89.728,10.323 89.684,9.983 89.577,9.661 C89.452,9.361 89.141,9.182 88.817,9.221 C88.077,9.221 87.708,9.791 87.708,10.931 L87.708,14.93 L86.708,14.93 L86.708,10.611 C86.725,10.298 86.691,9.984 86.608,9.681 C86.487,9.373 86.176,9.185 85.848,9.221 C85.477,9.22 85.141,9.434 84.988,9.772 C84.816,10.154 84.737,10.572 84.759,10.991 L84.759,14.901 L83.819,14.901 L83.819,9.692 C83.819,9.318 83.802,8.955 83.769,8.602 L84.769,8.602 L84.769,9.432 C85.014,8.826 85.605,8.43 86.259,8.432 C86.907,8.382 87.496,8.804 87.658,9.432 C87.937,8.822 88.548,8.431 89.219,8.432 C89.678,8.407 90.12,8.618 90.388,8.992 C90.639,9.483 90.749,10.033 90.708,10.581 L90.708,14.901 L90.708,14.901 Z M93.557,14.901 L92.557,14.901 L92.557,8.601 L93.557,8.601 L93.557,14.901 Z M93.607,7.062 L92.517,7.062 L92.517,5.992 L93.606,5.992 L93.606,7.062 L93.607,7.062 Z M99.645,14.901 L98.646,14.901 L98.646,10.901 C98.666,10.527 98.629,10.153 98.537,9.791 C98.407,9.434 98.055,9.209 97.677,9.241 C97.251,9.235 96.861,9.477 96.677,9.861 C96.474,10.257 96.375,10.697 96.386,11.141 L96.386,14.901 L95.386,14.901 L95.386,9.991 C95.386,9.431 95.37,8.971 95.337,8.612 L96.337,8.612 L96.337,9.472 C96.63,8.838 97.278,8.443 97.976,8.472 C99.082,8.472 99.636,9.138 99.636,10.472 L99.645,14.901 L99.645,14.901 Z M102.496,14.901 L101.496,14.901 L101.496,8.601 L102.496,8.601 L102.496,14.901 Z M102.546,7.062 L101.457,7.062 L101.457,5.992 L102.546,5.992 L102.546,7.062 Z M107.815,13.181 C107.815,14.407 107.149,15.021 105.815,15.021 C104.482,15.021 103.848,14.354 103.916,13.021 L104.916,13.021 L104.916,13.371 C104.976,14.038 105.283,14.371 105.836,14.371 C106.296,14.463 106.743,14.164 106.836,13.704 C106.857,13.595 106.857,13.481 106.836,13.371 C106.851,13.068 106.743,12.772 106.536,12.551 C106.288,12.328 106.012,12.139 105.716,11.99 C105.318,11.797 104.944,11.563 104.596,11.29 C104.273,10.992 104.098,10.568 104.115,10.131 C104.087,9.654 104.288,9.194 104.655,8.891 C105.043,8.607 105.516,8.466 105.995,8.491 C106.502,8.44 107.008,8.608 107.384,8.951 C107.681,9.345 107.833,9.828 107.814,10.321 L106.814,10.321 C106.814,9.541 106.517,9.148 105.925,9.141 C105.696,9.13 105.474,9.218 105.315,9.381 C105.16,9.55 105.077,9.772 105.086,10.001 C105.083,10.288 105.218,10.558 105.445,10.731 C105.722,10.944 106.02,11.128 106.335,11.28 C106.697,11.47 107.032,11.706 107.335,11.98 C107.65,12.3 107.823,12.733 107.815,13.181 L107.815,13.181 Z M111.814,14.901 C111.572,14.93 111.328,14.947 111.084,14.951 C110.664,15 110.243,14.869 109.924,14.591 C109.716,14.231 109.626,13.815 109.664,13.401 L109.664,9.322 L108.724,9.322 L108.724,8.601 L109.664,8.601 L109.664,7.442 L110.664,7.002 L110.664,8.602 L111.785,8.602 L111.785,9.332 L110.614,9.332 L110.614,13.331 C110.589,13.578 110.641,13.826 110.764,14.041 C110.916,14.179 111.12,14.245 111.324,14.221 L111.774,14.221 L111.814,14.901 Z M116.073,11.211 C116.094,10.778 116.053,10.343 115.954,9.922 C115.863,9.452 115.431,9.127 114.955,9.172 C114.287,9.172 113.901,9.581 113.794,10.402 C113.762,10.671 113.745,10.941 113.745,11.211 L116.073,11.211 Z M117.073,11.881 L113.814,11.881 L113.814,12.31 C113.789,12.78 113.846,13.25 113.984,13.7 C114.151,14.098 114.553,14.344 114.984,14.31 C115.71,14.31 116.091,13.847 116.124,12.92 L117.124,12.92 C117.236,13.969 116.475,14.909 115.426,15.021 C115.29,15.035 115.151,15.035 115.014,15.02 C114.293,15.098 113.591,14.75 113.215,14.13 C112.899,13.462 112.745,12.729 112.765,11.99 C112.72,11.178 112.825,10.365 113.075,9.591 C113.4,8.829 114.181,8.367 115.006,8.451 C115.757,8.365 116.482,8.767 116.805,9.451 C117.031,10.141 117.125,10.866 117.086,11.591 L117.073,11.881 L117.073,11.881 Z M121.273,9.422 L121.063,9.422 C120.657,9.391 120.26,9.554 119.994,9.861 C119.752,10.187 119.628,10.585 119.643,10.991 L119.643,14.89 L118.643,14.89 L118.643,9.75 L118.643,8.6 L119.643,8.6 L119.643,9.421 C119.925,8.795 120.557,8.4 121.243,8.421 C121.31,8.421 121.343,8.754 121.343,9.421 L121.273,9.422 Z M123.453,14.901 L122.453,14.901 L122.453,8.601 L123.453,8.601 L123.453,14.901 Z M123.503,7.062 L122.413,7.062 L122.413,5.992 L123.503,5.992 L123.503,7.062 Z M129.592,14.901 L128.592,14.901 L128.592,14.101 C128.267,14.67 127.656,15.015 127.002,15.001 C125.876,15.001 125.313,14.355 125.313,13.062 L125.313,8.602 L126.313,8.602 L126.313,12.602 C126.295,12.974 126.339,13.345 126.442,13.702 C126.578,14.062 126.94,14.285 127.322,14.242 C128.149,14.242 128.562,13.629 128.562,12.403 L128.562,8.603 L129.562,8.603 L129.562,13.513 C129.562,14.006 129.579,14.469 129.611,14.903 L129.592,14.901 Z M138.34,14.901 L137.34,14.901 L137.34,10.661 C137.36,10.323 137.317,9.983 137.211,9.661 C137.092,9.357 136.785,9.17 136.461,9.201 C135.721,9.201 135.351,9.771 135.351,10.91 L135.351,14.91 L134.351,14.91 L134.351,10.611 C134.368,10.298 134.335,9.984 134.251,9.681 C134.131,9.373 133.82,9.185 133.492,9.221 C133.122,9.22 132.785,9.434 132.632,9.772 C132.456,10.153 132.374,10.572 132.392,10.991 L132.392,14.901 L131.392,14.901 L131.392,9.692 C131.392,9.318 131.375,8.955 131.343,8.602 L132.343,8.602 L132.343,9.432 C132.588,8.826 133.178,8.43 133.833,8.432 C134.48,8.382 135.07,8.804 135.232,9.432 C135.511,8.822 136.12,8.431 136.793,8.432 C137.273,8.385 137.741,8.599 138.022,8.992 C138.273,9.483 138.383,10.033 138.342,10.581 L138.342,14.901 L138.34,14.901 Z M50.714,19.88 L50.324,19.88 C50.064,19.851 49.813,19.986 49.694,20.22 C49.615,20.465 49.582,20.722 49.594,20.98 L49.594,21.89 L50.663,21.89 L50.663,22.62 L49.603,22.62 L49.603,28.199 L48.603,28.199 L48.603,22.6 L47.684,22.6 L47.684,21.87 L48.603,21.87 L48.603,21.191 C48.558,20.693 48.634,20.193 48.823,19.731 C49.109,19.269 49.635,19.016 50.173,19.081 L50.673,19.081 L50.714,19.88 L50.714,19.88 Z M56.232,28.179 L55.232,28.179 L55.232,27.38 C54.907,27.947 54.296,28.293 53.643,28.279 C52.516,28.279 51.953,27.633 51.953,26.34 L51.953,21.881 L52.953,21.881 L52.953,25.88 C52.936,26.252 52.979,26.623 53.083,26.98 C53.219,27.34 53.581,27.563 53.964,27.52 C54.79,27.52 55.203,26.906 55.203,25.68 L55.203,21.881 L56.203,21.881 L56.203,26.79 C56.203,27.283 56.22,27.747 56.254,28.18 L56.232,28.179 Z M53.563,20.43 L52.634,20.43 L52.634,19.23 L53.563,19.23 L53.563,20.43 Z M55.562,20.43 L54.562,20.43 L54.562,19.23 L55.562,19.23 L55.562,20.43 Z M60.661,22.7 L60.452,22.7 C60.046,22.669 59.649,22.832 59.382,23.139 C59.13,23.472 59.003,23.882 59.022,24.299 L59.022,28.198 L58.022,28.198 L58.022,22.989 L58.022,21.839 L59.022,21.839 L59.022,22.659 C59.304,22.034 59.936,21.639 60.621,21.659 C60.689,21.659 60.722,21.992 60.722,22.659 L60.661,22.7 Z M70.2,19.14 L67.821,28.179 L66.542,28.179 L64.191,19.14 L65.321,19.14 L67.221,27.189 L69.151,19.14 L70.2,19.14 Z M74.01,24.489 C74.031,24.055 73.99,23.622 73.89,23.199 C73.799,22.729 73.367,22.405 72.89,22.449 C72.223,22.449 71.836,22.859 71.73,23.679 C71.698,23.948 71.681,24.219 71.68,24.489 L74.01,24.489 L74.01,24.489 Z M75.01,25.159 L71.711,25.159 L71.711,25.589 C71.684,26.062 71.741,26.535 71.881,26.988 C72.048,27.386 72.45,27.632 72.881,27.598 C73.607,27.598 73.987,27.135 74.02,26.208 L75.02,26.208 C75.132,27.257 74.374,28.198 73.325,28.311 C73.158,28.33 72.988,28.325 72.821,28.298 C72.099,28.376 71.397,28.029 71.021,27.408 C70.735,26.733 70.612,26 70.66,25.27 C70.614,24.457 70.72,23.644 70.971,22.87 C71.295,22.108 72.077,21.646 72.9,21.73 C73.652,21.644 74.376,22.045 74.7,22.73 C74.926,23.42 75.02,24.145 74.98,24.87 L75.01,25.159 L75.01,25.159 Z M79.21,22.7 L79,22.7 C78.594,22.669 78.197,22.832 77.93,23.139 C77.678,23.472 77.55,23.882 77.57,24.299 L77.57,28.198 L76.57,28.198 L76.57,22.989 L76.57,21.839 L77.57,21.839 L77.57,22.659 C77.852,22.034 78.484,21.639 79.171,21.659 C79.237,21.659 79.271,21.992 79.271,22.659 L79.21,22.7 Z M81.379,28.179 L80.379,28.179 L80.379,19.18 L81.379,19.18 L81.379,28.179 Z M84.658,28.179 L83.498,28.179 L81.418,24.65 L83.308,21.87 L84.458,21.87 L82.458,24.62 L84.658,28.179 Z M88.817,24.489 C88.838,24.055 88.797,23.622 88.697,23.199 C88.607,22.729 88.175,22.405 87.697,22.449 C87.031,22.449 86.644,22.859 86.538,23.679 C86.505,23.948 86.488,24.219 86.487,24.489 L88.817,24.489 L88.817,24.489 Z M89.817,25.159 L86.518,25.159 L86.518,25.589 C86.477,26.059 86.521,26.533 86.647,26.988 C86.814,27.386 87.217,27.632 87.647,27.598 C88.374,27.598 88.753,27.135 88.787,26.208 L89.787,26.208 C89.9,27.258 89.139,28.198 88.09,28.309 C87.954,28.324 87.815,28.324 87.678,28.309 C86.956,28.387 86.255,28.04 85.878,27.419 C85.593,26.743 85.47,26.011 85.518,25.279 C85.472,24.466 85.578,23.654 85.828,22.879 C86.153,22.118 86.934,21.656 87.759,21.739 C88.51,21.653 89.234,22.055 89.558,22.739 C89.776,23.429 89.864,24.155 89.817,24.879 L89.817,25.159 L89.817,25.159 Z M95.567,28.179 L94.567,28.179 L94.567,24.179 C94.598,23.78 94.564,23.378 94.467,22.989 C94.337,22.633 93.985,22.407 93.607,22.44 C92.761,22.44 92.338,23.06 92.338,24.299 L92.338,28.129 L91.338,28.129 L91.338,19.13 L92.338,19.13 L92.338,22.589 C92.685,22.048 93.285,21.724 93.928,21.73 C95.027,21.73 95.577,22.396 95.577,23.73 L95.567,28.179 Z M100.056,22.7 L99.846,22.7 C99.439,22.669 99.043,22.832 98.776,23.139 C98.525,23.472 98.396,23.882 98.417,24.299 L98.417,28.198 L97.417,28.198 L97.417,22.989 L97.417,21.839 L98.417,21.839 L98.417,22.659 C98.699,22.034 99.33,21.639 100.016,21.659 C100.082,21.659 100.116,21.992 100.116,22.659 L100.056,22.7 Z M108.535,28.179 L107.535,28.179 L107.535,27.38 C107.208,27.947 106.599,28.293 105.944,28.279 C104.818,28.279 104.255,27.633 104.255,26.34 L104.255,21.881 L105.255,21.881 L105.255,25.88 C105.237,26.252 105.282,26.623 105.385,26.98 C105.52,27.34 105.882,27.563 106.264,27.52 C107.091,27.52 107.504,26.906 107.504,25.68 L107.504,21.881 L108.504,21.881 L108.504,26.79 C108.504,27.283 108.52,27.747 108.553,28.18 L108.535,28.179 Z M114.573,28.179 L113.573,28.179 L113.573,24.179 C113.594,23.805 113.557,23.431 113.464,23.069 C113.333,22.713 112.982,22.487 112.604,22.52 C112.178,22.513 111.787,22.755 111.604,23.139 C111.403,23.532 111.304,23.969 111.314,24.409 L111.314,28.199 L110.314,28.199 L110.314,23.249 C110.314,22.69 110.297,22.23 110.264,21.869 L111.264,21.869 L111.264,22.729 C111.559,22.095 112.205,21.701 112.904,21.729 C114.011,21.729 114.563,22.395 114.563,23.729 L114.573,28.179 L114.573,28.179 Z M119.572,25.089 C119.6,24.469 119.535,23.85 119.384,23.249 C119.384,22.697 118.936,22.249 118.384,22.249 C117.831,22.249 117.384,22.697 117.384,23.249 C117.246,23.798 117.19,24.364 117.214,24.929 C117.187,25.539 117.256,26.149 117.414,26.739 C117.514,27.182 117.899,27.503 118.353,27.519 C118.854,27.56 119.309,27.221 119.413,26.729 C119.553,26.181 119.61,25.615 119.583,25.049 L119.572,25.089 Z M120.583,28.138 L119.583,28.138 L119.583,27.409 C119.277,27.934 118.711,28.252 118.104,28.239 C117.37,28.287 116.693,27.842 116.444,27.149 C116.218,26.421 116.119,25.661 116.153,24.899 C116.118,24.157 116.233,23.415 116.494,22.719 C116.751,22.077 117.393,21.673 118.083,21.719 C118.66,21.686 119.207,21.969 119.512,22.459 L119.512,19.14 L120.512,19.14 L120.512,26.989 C120.512,27.216 120.529,27.613 120.562,28.179 L120.583,28.138 Z M51.424,38.367 C51.45,37.748 51.387,37.128 51.234,36.528 C51.234,35.976 50.787,35.528 50.234,35.528 C49.682,35.528 49.234,35.976 49.234,36.528 C49.097,37.073 49.04,37.636 49.064,38.197 C49.039,38.807 49.106,39.417 49.264,40.007 C49.364,40.45 49.749,40.771 50.203,40.787 C50.704,40.828 51.159,40.49 51.263,39.997 C51.403,39.448 51.46,38.883 51.433,38.317 L51.424,38.367 Z M52.433,41.407 L51.433,41.407 L51.433,40.677 C51.127,41.202 50.56,41.52 49.952,41.507 C49.218,41.554 48.541,41.111 48.294,40.418 C48.066,39.69 47.967,38.929 48.004,38.168 C47.967,37.425 48.082,36.684 48.344,35.988 C48.602,35.346 49.243,34.943 49.933,34.988 C50.509,34.955 51.057,35.239 51.362,35.728 L51.362,32.419 L52.362,32.419 L52.362,40.267 C52.362,40.494 52.379,40.89 52.412,41.456 L52.433,41.407 Z M55.242,41.456 L54.242,41.456 L54.242,35.158 L55.242,35.158 L55.242,41.456 Z M55.293,33.618 L54.203,33.618 L54.203,32.538 L55.293,32.538 L55.293,33.618 Z M60.242,38.107 C60.265,37.578 60.208,37.048 60.072,36.537 C59.922,35.977 59.347,35.645 58.786,35.795 C58.389,35.901 58.09,36.231 58.022,36.637 C57.883,37.202 57.817,37.784 57.822,38.366 C57.8,38.887 57.85,39.409 57.972,39.916 C58.08,40.377 58.498,40.699 58.972,40.686 C59.527,40.693 60.002,40.293 60.092,39.747 C60.205,39.205 60.252,38.65 60.231,38.097 L60.242,38.107 Z M61.232,35.097 L61.232,41.657 C61.288,42.266 61.092,42.872 60.692,43.336 C60.211,43.725 59.598,43.911 58.982,43.855 C57.649,43.855 56.982,43.246 56.982,42.026 L57.982,42.026 C57.982,42.793 58.315,43.176 58.982,43.176 C59.398,43.219 59.796,43.001 59.982,42.626 C60.123,42.242 60.184,41.834 60.161,41.426 L60.161,40.577 C59.833,41.057 59.284,41.336 58.702,41.317 C58.006,41.368 57.356,40.963 57.093,40.317 C56.869,39.674 56.771,38.996 56.803,38.317 C56.764,37.545 56.869,36.771 57.113,36.037 C57.363,35.355 58.039,34.925 58.763,34.988 C59.398,34.951 59.992,35.298 60.272,35.868 L60.272,35.128 L61.232,35.097 Z M64.062,41.456 L63.062,41.456 L63.062,35.158 L64.062,35.158 L64.062,41.456 Z M64.112,33.618 L63.031,33.618 L63.031,32.538 L64.121,32.538 L64.112,33.618 Z M68.37,41.456 C68.128,41.485 67.885,41.503 67.641,41.506 C67.222,41.555 66.799,41.424 66.481,41.147 C66.278,40.795 66.188,40.391 66.221,39.987 L66.221,35.877 L65.281,35.877 L65.281,35.148 L66.221,35.148 L66.221,33.988 L67.221,33.548 L67.221,35.148 L68.341,35.148 L68.341,35.877 L67.201,35.877 L67.201,39.877 C67.176,40.124 67.228,40.372 67.351,40.587 C67.503,40.726 67.707,40.79 67.911,40.767 L68.361,40.717 L68.37,41.456 L68.37,41.456 Z M72.47,38.987 L72.47,38.237 L72.22,38.237 C70.887,38.237 70.22,38.687 70.22,39.587 C70.22,40.487 70.527,40.889 71.14,40.797 C71.559,40.802 71.946,40.569 72.14,40.196 C72.352,39.829 72.466,39.411 72.47,38.987 L72.47,38.987 Z M73.47,41.426 L72.47,41.426 L72.47,40.606 C72.101,41.182 71.463,41.529 70.78,41.526 C70.326,41.532 69.893,41.334 69.6,40.986 C69.324,40.6 69.186,40.131 69.21,39.657 C69.127,38.905 69.528,38.183 70.21,37.857 C70.924,37.603 71.682,37.49 72.439,37.527 L72.439,37.257 C72.459,36.892 72.415,36.527 72.309,36.177 C72.168,35.84 71.822,35.635 71.459,35.677 C71.187,35.667 70.92,35.756 70.709,35.927 C70.505,36.101 70.395,36.36 70.409,36.627 L70.409,36.687 L69.409,36.687 L69.409,36.627 C69.375,36.118 69.61,35.628 70.029,35.337 C70.48,35.065 71.005,34.942 71.529,34.987 C72.086,34.927 72.64,35.122 73.039,35.517 C73.345,35.979 73.487,36.533 73.438,37.086 L73.438,39.416 C73.438,40.176 73.459,40.842 73.499,41.416 L73.47,41.426 Z M76.269,41.456 L75.28,41.456 L75.28,32.418 L76.269,32.418 L76.269,41.456 Z M81.189,37.768 C81.209,37.334 81.169,36.9 81.068,36.478 C80.977,36.007 80.545,35.683 80.068,35.728 C79.401,35.728 79.015,36.138 78.907,36.957 C78.875,37.226 78.859,37.497 78.857,37.768 L81.189,37.768 Z M82.189,38.437 L78.89,38.437 L78.89,38.867 C78.868,39.338 78.929,39.808 79.07,40.257 C79.237,40.656 79.64,40.901 80.07,40.866 C80.796,40.866 81.176,40.404 81.21,39.478 L82.21,39.478 C82.321,40.527 81.561,41.466 80.512,41.578 C80.375,41.594 80.236,41.594 80.1,41.578 C79.378,41.656 78.676,41.308 78.3,40.687 C78.015,40.011 77.892,39.279 77.94,38.548 C77.895,37.735 77.999,36.922 78.251,36.148 C78.562,35.401 79.314,34.934 80.12,34.988 C80.873,34.902 81.595,35.303 81.92,35.988 C82.146,36.678 82.24,37.404 82.199,38.128 L82.189,38.437 Z M88.008,41.456 L86.948,41.456 L86.948,32.418 L88.008,32.418 L88.008,41.456 Z M94.257,41.456 L93.257,41.456 L93.257,37.457 C93.277,37.084 93.24,36.709 93.147,36.348 C93.017,35.991 92.665,35.766 92.287,35.798 C91.861,35.792 91.471,36.034 91.287,36.418 C91.087,36.811 90.987,37.247 90.997,37.688 L90.997,41.478 L89.997,41.478 L89.997,36.528 C89.997,35.968 89.979,35.508 89.947,35.149 L90.947,35.149 L90.947,35.988 C91.242,35.354 91.888,34.96 92.588,34.988 C93.694,34.988 94.248,35.655 94.248,36.988 L94.257,41.456 L94.257,41.456 Z M98.547,33.158 L98.156,33.158 C97.896,33.13 97.645,33.265 97.526,33.498 C97.447,33.743 97.414,34 97.427,34.258 L97.427,35.168 L98.497,35.168 L98.497,35.897 L97.436,35.897 L97.436,41.477 L96.436,41.477 L96.436,35.877 L95.516,35.877 L95.516,35.148 L96.436,35.148 L96.436,34.458 C96.403,33.954 96.492,33.45 96.696,32.988 C96.981,32.527 97.509,32.273 98.047,32.338 L98.547,32.338 L98.547,33.158 Z M102.406,35.987 L102.196,35.987 C101.79,35.957 101.394,36.12 101.127,36.427 C100.898,36.758 100.79,37.156 100.817,37.557 L100.817,41.456 L99.817,41.456 L99.817,36.307 L99.817,35.158 L100.817,35.158 L100.817,35.988 C101.098,35.362 101.731,34.967 102.417,34.988 C102.483,34.988 102.517,35.321 102.517,35.988 L102.406,35.987 Z M106.315,38.987 L106.315,38.237 L106.065,38.237 C104.732,38.237 104.066,38.687 104.066,39.587 C104.066,40.487 104.372,40.889 104.985,40.797 C105.405,40.802 105.793,40.569 105.985,40.196 C106.197,39.829 106.311,39.411 106.315,38.987 L106.315,38.987 Z M107.315,41.426 L106.315,41.426 L106.315,40.606 C105.946,41.182 105.309,41.529 104.625,41.526 C104.171,41.532 103.738,41.334 103.444,40.986 C103.169,40.6 103.031,40.131 103.055,39.657 C102.972,38.905 103.373,38.183 104.055,37.857 C104.77,37.603 105.527,37.49 106.285,37.527 L106.285,37.257 C106.304,36.892 106.26,36.527 106.154,36.177 C106.014,35.84 105.668,35.635 105.304,35.677 C105.033,35.667 104.765,35.756 104.554,35.927 C104.351,36.101 104.24,36.36 104.254,36.627 L104.254,36.687 L103.254,36.687 L103.254,36.627 C103.219,36.118 103.453,35.628 103.874,35.337 C104.307,35.064 104.812,34.932 105.323,34.957 C105.88,34.897 106.435,35.091 106.834,35.487 C107.141,35.949 107.282,36.503 107.232,37.056 L107.232,39.386 C107.232,40.146 107.253,40.812 107.293,41.386 L107.315,41.426 Z M112.614,39.728 C112.614,40.955 111.947,41.568 110.614,41.568 C109.281,41.568 108.649,40.9 108.715,39.568 L109.715,39.568 L109.715,39.917 C109.775,40.583 110.081,40.917 110.635,40.917 C111.094,41.009 111.543,40.71 111.635,40.249 C111.656,40.14 111.656,40.026 111.635,39.917 C111.651,39.614 111.543,39.318 111.335,39.097 C111.081,38.876 110.798,38.692 110.495,38.547 C110.099,38.354 109.723,38.12 109.375,37.847 C109.053,37.549 108.877,37.125 108.895,36.687 C108.867,36.211 109.067,35.75 109.435,35.447 C109.823,35.163 110.295,35.022 110.775,35.047 C111.282,34.997 111.787,35.164 112.164,35.507 C112.473,35.91 112.63,36.41 112.604,36.917 L111.604,36.917 C111.604,36.137 111.308,35.744 110.714,35.737 C110.486,35.727 110.264,35.815 110.104,35.977 C109.947,36.147 109.864,36.374 109.875,36.607 C109.873,36.893 110.007,37.163 110.234,37.336 C110.511,37.55 110.809,37.734 111.125,37.886 C111.486,38.076 111.822,38.312 112.125,38.586 C112.426,38.906 112.588,39.335 112.574,39.775 L112.614,39.728 Z M116.534,41.456 C116.291,41.485 116.048,41.503 115.804,41.506 C115.385,41.555 114.963,41.424 114.644,41.147 C114.436,40.786 114.345,40.37 114.384,39.956 L114.384,35.877 L113.444,35.877 L113.444,35.148 L114.384,35.148 L114.384,33.988 L115.384,33.548 L115.384,35.148 L116.504,35.148 L116.504,35.877 L115.384,35.877 L115.384,39.877 C115.357,40.124 115.409,40.372 115.534,40.587 C115.686,40.726 115.89,40.79 116.094,40.767 L116.544,40.717 L116.534,41.456 L116.534,41.456 Z M120.402,35.987 L120.192,35.987 C119.786,35.957 119.39,36.12 119.123,36.427 C118.87,36.76 118.744,37.17 118.763,37.587 L118.763,41.486 L117.763,41.486 L117.763,36.306 L117.763,35.157 L118.763,35.157 L118.763,35.987 C119.046,35.361 119.677,34.966 120.362,34.987 C120.429,34.987 120.463,35.32 120.463,35.987 L120.402,35.987 Z M125.861,41.456 L124.862,41.456 L124.862,40.657 C124.537,41.225 123.927,41.57 123.273,41.556 C122.147,41.556 121.583,40.91 121.583,39.616 L121.583,35.158 L122.583,35.158 L122.583,39.157 C122.566,39.529 122.609,39.9 122.713,40.257 C122.847,40.618 123.21,40.84 123.593,40.798 C124.406,40.811 124.812,40.207 124.812,38.988 L124.812,35.158 L125.812,35.158 L125.812,40.068 C125.812,40.56 125.828,41.023 125.861,41.456 L125.861,41.456 Z M128.662,41.456 L127.662,41.456 L127.662,32.458 L128.662,32.458 L128.662,41.456 Z M131.941,41.456 L130.812,41.456 L128.732,37.927 L130.623,35.148 L131.772,35.148 L129.772,37.898 L131.941,41.456 Z M135.43,41.456 C135.188,41.485 134.944,41.503 134.701,41.506 C134.28,41.555 133.859,41.424 133.54,41.147 C133.332,40.786 133.24,40.37 133.281,39.956 L133.281,35.877 L132.341,35.877 L132.341,35.148 L133.281,35.148 L133.281,33.988 L134.281,33.548 L134.281,35.148 L135.4,35.148 L135.4,35.877 L134.281,35.877 L134.281,39.877 C134.254,40.124 134.307,40.372 134.43,40.587 C134.583,40.726 134.786,40.79 134.991,40.767 L135.441,40.717 L135.43,41.456 L135.43,41.456 Z M140.94,41.456 L139.94,41.456 L139.94,40.657 C139.614,41.225 139.005,41.57 138.35,41.556 C137.225,41.556 136.661,40.91 136.661,39.616 L136.661,35.158 L137.661,35.158 L137.661,39.157 C137.643,39.529 137.687,39.9 137.79,40.257 C137.925,40.618 138.287,40.84 138.67,40.798 C139.497,40.798 139.91,40.185 139.91,38.958 L139.91,35.158 L140.91,35.158 L140.91,40.068 C140.91,40.56 140.926,41.024 140.959,41.456 L140.94,41.456 Z M145.379,35.987 L145.169,35.987 C144.763,35.957 144.367,36.12 144.099,36.427 C143.848,36.76 143.72,37.17 143.74,37.587 L143.74,41.486 L142.74,41.486 L142.74,36.306 L142.74,35.157 L143.74,35.157 L143.74,35.987 C144.023,35.361 144.653,34.966 145.34,34.987 C145.406,34.987 145.44,35.32 145.44,35.987 L145.379,35.987 Z" id="Shape" fill="#1E1E1E"></path>
        </g>
    </g>
</svg>